<?xml version="1.0" encoding="UTF-8"?>
<!DOCTYPE svg PUBLIC "-//W3C//DTD SVG 1.1//EN" "http://www.w3.org/Graphics/SVG/1.1/DTD/svg11.dtd">
<!-- Creator: CorelDRAW 2017 -->
<svg xmlns="http://www.w3.org/2000/svg" xml:space="preserve" width="3508px" height="992px" version="1.1" style="shape-rendering:geometricPrecision; text-rendering:geometricPrecision; image-rendering:optimizeQuality; fill-rule:evenodd; clip-rule:evenodd"
viewBox="0 0 1443.97 408.39"
 xmlns:xlink="http://www.w3.org/1999/xlink">
 <defs>
  <style type="text/css">
   <![CDATA[
    .fil2 {fill:#244D27}
    .fil3 {fill:#3F3786}
    .fil0 {fill:#51A542}
    .fil1 {fill:#5F5E5E}
    .fil4 {fill:#779277}
    .fil5 {fill:#A2CC96}
   ]]>
  </style>
 </defs>
 <g id="Layer_x0020_1">
  <metadata id="CorelCorpID_0Corel-Layer"/>
  <path class="fil0" d="M1310.16 281.44l0 0zm88.97 -19.82c4.33,-9.36 11.77,-19.24 20.18,-23.61 3.85,12.99 2.29,25.82 -6.83,35.37 -5.91,-1.53 -10.23,-6.84 -13.35,-11.76zm-107.02 4.31c-0.1,-6.95 -2.09,-5.7 7.26,-16.3 3.45,-3.91 7.29,-9.89 12.31,-11.06 2.76,13.92 3.58,25 -7.09,34.69 -2.31,0.08 -4.21,-0.46 -6.37,-1.62 -3.02,-1.62 -2.16,-1.33 -2.57,-4.91 -4.21,0.23 -0.83,0.7 -3.54,-0.8zm-147.73 -8.43c6.34,-4.41 13.13,-13.81 21.29,-13.75 2.33,10.79 -1.67,15.56 -7.36,23.2 -5.8,7.79 -8.44,13.09 -18.6,5.49l-0.57 -5.98c5.3,-4.62 4.79,0.06 5.24,-8.96zm209.3 -0.66c0.74,-11.41 9.81,-23.23 20.48,-25.43 1.03,12.08 -9.23,24.07 -20.48,25.43zm-250.39 21.3l3.81 -0.69 0.15 3.16c0.08,-0.15 15.53,-15.56 22.35,-26.21 2.02,-3.15 3.97,-8.89 7.77,-9.23 0.18,8.27 -0.78,11.06 -5.77,17.9 -7.83,10.7 -22.31,41.04 -24.55,52.99l-0.05 1.11 -2.13 7.16c0,5.74 -2.06,7.53 0.14,13.85 6.5,-0.08 10.01,-8.06 12.45,-13.87l3.31 -8.25 6.47 -22.2c3.52,-0.06 4.17,-0.94 7.75,-0.95 10.83,-0.01 16.63,6.46 22.66,4.71 6.88,-2 15.48,-11.46 21.07,-16.04 17.45,-14.33 20.03,-37.49 38.63,-35.38 -1.56,3.4 -2.5,8.62 -4.17,11.86 -2.06,3.99 -4.58,1.19 -6.72,9.5 -3.93,15.29 -0.73,17.46 2.39,26.92 4.25,0.37 5.28,1.22 9.61,-0.41 2.75,-1.03 5.63,-3.25 7.82,-5.07 4.39,-3.66 8,-10.44 12.35,-13.14 4.89,7.24 3.9,25.84 19.25,21.29 10.65,-3.16 14.3,-15.04 22.27,-20.78 5.29,7.7 7.47,23.49 25.88,20.56 5.45,-0.87 11.62,-3.43 14.09,-9.25 2.37,-5.57 1.97,-2.45 6.69,-5.41 2.73,-1.71 3.48,-3.79 6.6,-5.64 6.9,9.84 9.95,29.24 25.59,22.64 11.9,-5.01 18.31,-17.16 27.24,-23.74 3.71,2.95 7.24,12.57 10.89,16.85 6.14,7.19 12.36,6.09 20.14,3.19 10.85,-4.03 24.77,-17.7 26.7,-29.65 -8.37,1.46 -13.32,13.84 -25.09,12.9 1.13,-5.88 13.15,-12.94 16.7,-28.5 2.22,-9.74 1.05,-20.66 -1.3,-30.38 -0.53,-2.2 -1.16,-14.08 -11.3,-7.47 -4.48,2.92 -5.44,12.65 -11.14,20.57 -9.05,12.59 -27.46,35.38 -39.38,44.77 -13.31,10.49 -19.36,4.97 -21.16,-10.46 2.1,-1.68 9.84,-5.75 12.75,-7.35 16.56,-9.06 22.99,-20.66 22.99,-40.39 -19.56,0 -29.97,2.92 -41.2,23.1 -4.01,7.21 -6.86,13.79 -11.57,20.94 -1.9,2.87 -4.85,6.71 -7.47,8.72 -4.05,3.11 -4.94,5.46 -8.1,8.85 -1.91,-0.24 -2.4,-1.03 -3.79,-1.07 -0.84,-0.03 -3.51,0.98 -4.75,1.29 0.62,-7.51 6.24,-9.16 9.2,-14.33 1.94,-3.39 2.25,-5.7 3.58,-8.65 1.63,-3.63 2.95,-2.12 4.6,-7.58 3.23,-10.69 0.42,-31.43 -3.91,-41.16l-8.99 2.07c-1.01,3.1 -0.56,7.06 -0.45,10.36 -6.69,5.75 -20.01,22.02 -25.44,30.43 -2.31,3.58 -2.97,6.68 -4.5,9.34 -1.42,2.46 -5.63,4.18 -7.99,6.52 -5.6,5.53 -9.69,10.45 -18.23,9.5 -3.98,-4.27 -6.38,-7.35 -4.3,-13.97 1.87,-5.96 4.52,-7.48 7.86,-11.61 8.83,-10.96 10.52,-13.42 10.52,-28.63 -31.09,0 -22.63,41.39 -45.25,50.23 -4.46,1.74 -6.14,0.64 -9.23,-2.63 1.6,-13.13 13.01,-25.01 16.37,-34.48 2.1,-5.9 1.42,-9.7 -2.51,-13.73 -14.33,-1.75 -12.61,5.25 -25.89,-5.23 -4.79,1.51 -11.44,9.17 -13.21,14.43 -2.94,8.72 0.98,15.35 -1.43,24.89 -1.62,6.44 -7.45,11.44 -12.52,15.01 -3.07,2.15 -5.22,3.35 -8.57,5.1 -5.12,2.65 -4.82,3.84 -10.31,2.47 0.81,-9.39 9.75,-15.84 15.19,-22.95 6.83,-8.9 7.8,-20.04 7.8,-31.46 -21.38,0 -27.93,18.43 -35.67,20.61 6.02,-13.69 0.38,-7.58 12.68,-24.73 7.33,-10.22 8.99,-13.03 11.89,-25.56 -14.8,0.31 -26.51,16.31 -27.93,30.31 -10.22,8.13 -12.78,14.78 -19.77,25.59 -9.18,14.18 -19.28,18.67 -20.46,26.54z"/>
  <path class="fil1" d="M645.96 253.41l0 0zm-89.17 20.95c-0.42,-5.03 6.59,-15.6 9.93,-19.27 5.13,-5.61 9.9,-10.47 18.27,-10.57 0.32,10.57 -9.05,23.43 -15.07,31.63l-13.13 -1.79zm126.38 3.11c-2.11,-22.53 24.25,-39.66 35.84,-41.35 -1.48,8.94 -8.62,18.09 -13.7,25.42 -5.47,7.91 -11.4,16.85 -22.14,15.93zm-130.73 47.65l2.92 -0.57 -19.29 -0.34 2.29 -7.06 568.64 0.02 0.05 -1.11 -567.61 0c-0.55,-3.33 5.52,-20.6 7.63,-22.9 10.38,-0.16 22.6,7.68 33.62,2.82 6.26,-2.77 16.36,-14.47 22.44,-19.65 3.42,4.51 5.14,11.15 8.7,15.89 13.06,-1.55 20.22,-31.4 34.13,-38.81 -0.96,11.28 -18.33,31.12 -7.52,41.62 9.85,9.56 22.26,-12.13 31.89,-19.29 1.23,2.99 3.53,6.49 4.96,9.82 0.81,1.91 1.18,3.2 2.09,5.24 1.27,2.83 1.19,3.76 3.46,4.65 15.13,-0.33 18.76,-17.23 27.53,-23.83 1.02,9.61 -1.13,17.9 -0.45,26.99 15.58,1.26 27.91,-11.52 33.96,-25.4 0.86,-1.96 1.27,-4.18 2.3,-6.4 -6.77,0.83 -9.13,9.8 -17.28,8.83 -10.02,-1.18 -7.33,-9.31 -3.8,-16.2 9.53,-18.58 6.55,-6.31 8.48,-31.57 0.58,-7.61 5.48,-18.06 -14.19,-10.63 -21.19,8 -34.46,23.96 -45.9,42.93 -5.49,9.1 -9.58,15.49 -20.77,15.5 2.4,-10.39 1.09,-13.93 10.1,-24.12 2.79,-3.15 5.06,-6.62 6.24,-10.82 1.96,-7.04 0.88,-8.64 0.3,-15.35 -10.46,0.02 -6.68,-3.31 -15.87,4.1 -6.31,5.1 -22.01,31.03 -31.48,36.22 -1.14,-13.17 14.86,-18.3 14.86,-35.37 -16.21,0 -18.69,8.26 -27.22,26.1 -8.71,18.24 -13.53,23.36 -30.64,23.36 8.17,-18.37 5,-8.36 15.53,-22.59 7.55,-10.2 8.24,-18.07 8.24,-31 -13.17,-6.31 -30.21,18.25 -35.66,19.79 4.29,-9.64 6.54,-15.18 12.36,-24.24 4.35,-6.77 11.52,-17.13 12.21,-25.22 -17.86,0 -24.06,17.8 -32.33,31.5 -6.57,10.9 -21.4,28.33 -22.95,40.97 7.02,-5.28 18.62,-22.65 24.16,-30.36 0.32,16.27 -27.96,51.58 -33.87,77.42l-87.98 0c-2.28,0 -4.92,-0.13 -7.15,-0.02 -3.12,0.16 -3.73,0.81 -7.09,0.88 -6.16,0.14 -8.67,-2 -11.71,3.48 2.62,7.08 6.46,4.73 24.36,4.73 21.79,0 72.38,-1.27 87.99,0.19 -1.85,3.51 -0.87,10.28 -0.75,14.53 8.17,-1.47 9.74,-9.22 13.6,-14.53l16.47 -0.2z"/>
  <path class="fil2" d="M448.61 226.92c2.22,1.26 2.18,1.41 4,0.11 -12.24,-5.88 -26.18,-15.17 -37.82,-22.53 -20.93,-13.24 -51.99,-34.28 -70.22,-50.63 -10.15,-9.1 -21.25,-20.8 -31.49,-29.07l-78.28 -72.75c-4.79,-5.11 -9.95,-11.32 -14.64,-16.09 -4.32,-4.41 -10.96,-10.63 -14.62,-15.29 -3.22,-4.1 -5.31,-4.21 -3.66,-8.88 1.08,-3.04 3.58,-9.08 1.89,-11.79 -2.82,1.77 -4.25,7.41 -7.99,9.12l-4.71 -3.65c-0.96,4.7 4.24,4.99 0.96,9.79 -4.71,6.91 -15.44,17.62 -20.14,23.7 -10.83,14 -79.82,84.74 -91.7,84.88 -0.69,-9.23 -1.43,-33.78 -5.96,-40.12 -3.75,1.75 -8.38,2.26 -11.9,8.63 -8.15,14.75 4.83,43.44 -10.8,55.55 -13.31,10.31 -31.08,20 -38.98,26.23 -8.3,6.56 -9.6,3.18 -12.55,9.21 9.2,0.11 8.69,-3.86 15.84,-5.79 30.1,-8.09 104.27,-55.6 125.05,-77.68 3.58,-3.82 7.69,-7.19 11.49,-11.13 13.68,-14.23 41.53,-50.28 45.77,-67.81 4.36,3.74 18.47,26.35 23.66,33.1 4.71,6.11 27.16,33.81 32.48,38.76 6.93,6.43 17.9,18.99 21.97,21.67 5.09,3.35 3.91,0.05 7.52,6.19 2.52,4.3 18.34,17.01 22.84,20.76 20.07,16.73 44.4,33.53 66.72,46.84 11.12,6.63 66.33,37.99 75.27,38.67z"/>
  <path class="fil3" d="M801.31 357.28l0 0zm13.41 -3.19c0.73,-5.72 3.8,-7.18 9,-7.58 -0.68,5.14 -4.26,7.18 -9,7.58zm-148.13 7.93c-0.78,-7.53 13.38,-26.22 18.12,-31.97 13.43,-1.13 31.87,6.22 16.25,20.14 -9.11,8.11 -22.27,12.23 -34.37,11.83zm11.87 -30.29l0 0zm-123.1 -7.18c7.14,0.46 12.49,-2.37 20.85,0.18l86.33 0.41c-4.52,3.72 -8.79,7.45 -8.13,14.29l6.41 -0.46 1.44 -4.25c3.48,-1.15 12.46,-2.65 16.2,-2.99 -2.12,9.11 -19.48,19.14 -19.82,35.45 14.64,0 29.39,0.84 40.62,-9.7 4.3,-4.03 9.01,-7.87 11.03,-14.08 3.21,-9.83 0.06,-11.06 -4.81,-18.06l53.03 -0.21c-2.64,2.43 -4.25,1.31 -10.09,8.47 -9.8,11.99 -10.76,34.87 -28.68,27.59 6.14,-12.1 18.37,-3.4 17.24,-18.61 -6.59,-1.24 -9.54,-1.67 -15.59,2.47 -3.56,2.44 -7.77,6.88 -8.7,11.57 -1.45,7.37 1.14,11.45 8.56,11.44 7.05,-0.02 9.85,-4.2 15.07,-5.89 2.96,2.14 1.91,2.57 3.92,5.05 10.52,-0.23 7.81,0.79 15.89,-5.05 3.22,2.33 4.78,5.76 9.41,5.6 3.54,-0.11 7.19,-2.57 9.3,-5.4 5.81,3.53 7.72,7.2 14.6,4.01 2.37,-1.1 4.29,-3.2 6.52,-3.95 2.02,-0.68 6.92,-1.35 8.97,-1.65 1.51,2.9 1.55,4.48 4.28,6.43 7.97,-0.1 13.55,0.89 19.66,-5.17 4.13,-4.09 8.8,-11.14 15.14,-10.26 -0.53,2.29 -9.8,12.67 -1.18,15.15 4.26,1.23 13.82,-4.22 13.79,-9.46 -4.05,1.42 -5.64,2.63 -9.97,2.08 -0.03,-7.31 7.92,-5.39 6.79,-16.09l-16.26 -1.63c-0.92,0.96 -4.39,5.51 -4.67,6.72 -0.88,3.78 2.38,4.08 -1.63,8.15 -4.47,4.53 -10.57,6.9 -16.75,4.56 -0.33,-5.77 4.64,-5.6 9.06,-7.6 15.23,-6.9 5.56,-18.88 -8.89,-7.6 -4.9,3.83 -7.06,10.69 -12.99,11.22 0.49,-6.2 3.41,-3.08 3.12,-13.07 -12.31,2.21 -7.24,15.13 -21.26,17.93 2.21,-11.95 9.11,-5.3 8.54,-17.96 -16.07,0.67 -12.32,21.46 -26.28,15.8 -1.52,-4.08 0.68,-3.85 6.68,-11.63 1.07,-1.38 2.27,-0.77 2.17,-4.99 -8.13,-0.38 -10.56,3.07 -14.85,9.11 -2.84,4 -8.57,12.67 -14.13,7.83 -6.3,-6.65 15.21,-13.94 17.32,-35.02l183.74 -0.12 9.34 -4.13c1.72,4.34 -1.84,1.76 2.6,3.71l88.71 0c5.92,-1.27 21.57,-0.43 28.54,-0.43 9.76,0 19.57,-0.09 29.32,0.02l2.13 -7.16 -568.64 -0.02 -2.29 7.06 19.29 0.34z"/>
  <path class="fil2" d="M114.29 238.69l5.89 28.22c0.53,3.21 1.11,12.66 1.1,16.17 -0.13,23.66 -5.6,54.42 -5.58,65.11 0,4.32 0.49,4.25 -0.92,8.14 -1.32,3.66 -0.66,4.09 0.15,7.55 12,0 62.93,1.08 70.54,-0.83 0,-14 -8.62,-37.37 -7.96,-66.81l3.3 -33.66c1.21,-7.48 4.51,-25.78 4.66,-33.08 -9.39,3.24 -14.56,15.35 -32.64,20.46 -22.39,6.34 -31.22,-9.68 -38.54,-11.27z"/>
  <path class="fil0" d="M860.5 228.12l-25.38 11c-13.05,6.18 -23.47,11.7 -30.11,25.55 -1.09,2.26 -1.76,4.42 -2.66,6.31 -1.5,3.19 -4.49,3.91 -5.02,13.8 -0.11,2.18 0.73,6.48 1.29,8.53 10.33,37.94 96.27,16.92 96.22,-33.31 -11.03,1.03 -20.93,16.64 -32.25,21.7 -6.14,2.75 -14.01,5.21 -20.84,5.53 -7.83,0.37 -18.32,0.1 -25.38,-1.67 -0.01,-5.71 -2.12,-12.58 3.95,-21.44 11.43,-16.68 35.25,-21.28 52.09,-28.27 4.47,-1.86 14.12,-4.92 15.8,-10.78 2.9,-10.07 -6.18,-12.74 -13.95,-12.05 -12.02,1.07 -24.03,3.34 -36.18,-0.32 -1.64,-0.5 -2.94,-1.05 -4.55,-1.87 -0.65,-0.32 -1.53,-0.75 -2.12,-1.09l-2.36 -1.67 0 -9.9c1.84,-1.31 7.07,-3.36 12.46,-7.64 11.86,-9.43 31.83,-18.27 46.99,-12.79l-3.76 9.72c7.43,-6.1 16.92,-7.6 22.85,-12.3 -0.26,-7.86 -0.86,-14.55 -0.86,-22.33 -10.07,-5.18 -10.73,-4.92 -22.2,-4.94 -20.83,-0.05 -44.68,10.46 -58.47,25.74 -4.41,4.9 -8.62,11.59 -10.35,18.09 -2.06,7.8 0.25,16.5 3.67,23.11 9.27,17.94 29.49,2.68 41.12,13.29z"/>
  <path class="fil1" d="M484.63 226.61c4.28,-10.82 36.49,-46.48 47.55,-48.28l-22.79 49.36 -24.76 -1.08zm-32.02 0.42c-1.82,1.3 -1.78,1.15 -4,-0.11 -1.89,1.54 -2.54,0.81 -5.38,3.58 -1.72,1.69 -2.83,2.78 -3.9,5.01 -1.69,3.51 -3.5,10.39 -3.32,14.51 4.3,1.39 8.97,0.95 12.39,4.39 -0.89,7.47 -16.25,17.97 -22.21,22.67 -11.26,8.88 -15.63,14.05 -15.63,29.91 20.01,-1.77 36.72,-45.85 51.81,-52.46 9.03,-3.95 24.57,-1.12 32.21,-1.12 -0.24,11.71 -17.02,35.25 -6.63,44.82 10.12,9.32 30.37,-13.26 31.85,-22.42 -3.53,1.59 -10.82,6.21 -13.89,3.74 -1.31,-1.36 -2.15,-21 12.19,-27.23 8.97,-3.88 16.41,-8.04 19.19,-21.79l-10.42 -7.51c7.25,-22.12 22,-41.83 23.98,-65.24 -23.62,0.01 -53.86,42.32 -70.73,59.98 -11.94,12.49 -16.17,14.98 -27.51,9.27z"/>
  <path class="fil0" d="M1029.03 257.92c-0.64,-10.49 10.68,-25.13 20.83,-26.47 -0.38,13.3 -8.79,23.24 -20.83,26.47zm-14.52 6.21c1.01,2.92 0.54,2.63 1,5.79 0.19,1.33 0.83,3.44 1.09,4.69 0.56,2.78 0.8,8.02 -0.5,10.13 -2.46,6.6 -0.68,9.97 4.96,12.15 5.31,2.05 9.99,2.34 15.35,0.72 8.01,-2.44 15.28,-9.68 20,-16.29 5.29,-7.42 11.1,-13.22 16.2,-20.25 8.35,-11.54 3.33,-15.9 20.38,-15.9 -0.9,10.75 -15.33,23.13 -12.4,39.26 1.67,9.18 4.46,12.41 13.5,9.71 9.72,-2.9 8.63,-8.95 13.16,-13.53l-0.15 -3.16 -3.81 0.69c-3.25,-3.68 -4.46,-1.86 -7.72,-4.33 -2.15,-18.99 11.97,-25.39 13.88,-35.43 4.54,-23.96 -9.52,-12.34 -19.49,-15.63 -6.48,-2.14 -15.69,-11.16 -23.24,14.06 -5.5,18.36 12.17,13.23 -13.55,37.01 -7.25,6.7 -13.33,9.12 -23.46,8.3l-2.7 -14.74c7.61,-5.97 12.55,-5.93 26.92,-18.32 14.38,-12.39 13.89,-41.68 -13.01,-26.72 -12.24,6.8 -30.1,31.83 -26.41,41.79z"/>
  <path class="fil1" d="M59.14 358.93l-0.58 12.52c6.08,-3.4 2.28,-7.12 7.23,-10.98 0.15,-8.53 10.56,-38.54 13.48,-50.17 3.12,-12.43 9.17,-42.07 9.5,-54.41l0.81 -31.35c0.06,-22.58 -15.68,-63.15 -32.51,-63.46 0.96,12.02 6.87,32.25 8.6,45.46 3.19,24.33 2.87,52.97 1.72,78.22l-0.79 12.36c-0.14,3.21 -0.59,2.9 -0.79,5.77 -1.69,23.74 -3.21,32.24 -6.67,56.04z"/>
  <path class="fil0" d="M936.05 247.63l3.31 0.05 -0.14 5.73 1.44 0.96c0.26,3.47 -1.3,7.19 -2.56,10.24 -2.44,5.93 -2.05,4.17 -2.05,11.06 -1.53,3.8 -0.08,0.15 -4.03,2.4 -0.81,4.39 -0.75,6.89 -0.76,11.65 -0.01,19.33 18.18,2.17 24.01,-3.95 3.18,-3.34 5.03,-5.42 7.95,-9.05 6.94,-8.62 5.73,-5.72 8.29,-6.75 1,9.47 -2,9.22 -2.24,15.58 -0.25,6.72 2.16,8.98 4.17,14.71 6.19,0.66 7.04,1.91 13.32,-1.53 5.36,-2.93 6.8,-3.28 7.29,-9.73 9.32,-3.53 12.16,-9.98 16.51,-13.47 4.35,5.78 1.4,6.55 5.54,9.21 1.3,-2.11 1.06,-7.35 0.5,-10.13 -0.26,-1.25 -0.9,-3.36 -1.09,-4.69 -0.46,-3.16 0.01,-2.87 -1,-5.79 -8.83,2.91 -17.73,18.43 -27.73,13.19 -4.95,-4.66 5.41,-32.51 10.74,-40.77 3.42,-5.32 6.55,-3.34 11.45,-7.05l0.52 -1.44c-12.15,-1.07 -6.88,2.63 -29.06,-1.25 -1.39,-3.52 0.01,-5.16 0,-9.67 -2.41,1.54 -14,13.3 2.17,14.38 1.82,0.13 -0.06,-1.44 2.86,1 0.56,5.6 -10.32,21.05 -13.86,25.71 -4.92,6.48 -15.18,16.65 -23.66,17.44 0,-16.37 4.79,-15.39 10.05,-27.47 3.04,-7 -0.17,-3.97 6.46,-6.47 0.46,-6.18 -0.94,-12.82 -1.45,-18.82 -12.07,0.26 -12.21,8 -14.9,10.05 -2.17,1.65 -11.25,1.44 -12.05,14.67z"/>
  <path class="fil2" d="M324.51 382.46c-4.71,-1.59 -33.17,6.87 -40.16,8.43 -39.84,8.86 -83.43,11.46 -124.26,11.75 -4.57,0.03 -7.43,-0.88 -11.85,-0.86 -26.52,0.08 -98.52,-10 -115.88,-32.81 -15.58,-20.46 3.71,-27.39 3.7,-34.42 -7.21,-0.62 -28.35,16.59 -30.23,25.5 -3.24,15.32 16.05,25.38 27.55,29.28 36.15,12.26 45.63,13.2 80.84,17.32l40.34 1.74 0.43 0 27.79 0 38.68 -2.95c4.03,-0.65 8.9,-0.82 12.94,-1.38 16.27,-2.27 30.98,-4.79 47.3,-8.51 7.22,-1.65 39.83,-10.07 42.81,-13.09z"/>
  <path class="fil3" d="M1161.55 361.76c-2.78,-6.94 3.57,-10.85 8.91,-12.38 1.81,7.39 -0.07,14.51 -8.91,12.38zm53.49 -5.3l0 0zm42.01 -1.65l0 0zm0 0c1.64,-3.38 4.16,-7.4 3.48,-11.04 -10.01,-2.04 -16.19,10.72 -22.98,12.56 1.09,-4.73 5.25,-2.57 6.69,-11.09 -4.9,-0.85 -9.59,2.21 -12.03,6.81 -4.13,7.79 -3.17,5.93 -10.61,8.3 -0.91,-6.87 3.27,-6.48 6.2,-10.53l-1.05 -4.59c-7.37,-1.62 -12.37,8.74 -17.05,8.51 1.95,-3.62 3.79,-4.56 2.48,-9.14 -7.6,-2.36 -16.73,9.43 -22.18,10.9 1.32,-5.71 6.82,-3.28 5.73,-10.43 -11.38,0.09 -9.19,10.16 -16.83,12.08 -0.82,-4.34 3.29,-13.87 -4.44,-15.43 -14.71,-2.96 -24.28,30.97 -39.26,18.65 -0.52,-5.55 4.74,-7.59 9.34,-7.99 8,-0.7 7.89,-2.87 7.89,-10.76 -9.82,-0.02 -21.09,7.12 -22.73,15.16 -0.95,4.61 1.08,6.54 2.21,10.31 14.22,0.69 11.06,0.56 21.83,-5.58 4.19,4.45 5.89,6.75 12.8,5.51 4.07,-0.73 8.83,-4.35 13.73,-5.69l4.49 5.18c4.86,-0.7 10.93,-9.08 16.62,-12.51 0.09,4.39 -5.33,8.68 -4.01,12.6 6.56,2.5 11.87,-8.53 17.67,-10.14 -1.08,4.78 -2.82,4.74 -2.19,10.53 10.93,1.25 9.99,-3.97 16.49,-4.82 4.08,5.02 4.29,6.1 10.48,0.27 3.08,-2.9 5.58,-7.25 9.78,-8.41 -1.08,4.63 -5.52,7.27 -3.94,12.64 7.04,1.5 10.25,-7.83 16.67,-9.3l-2.22 9.53c8.07,1.04 11.18,-2.46 17.57,-5.54l4.4 6.08c13.56,-0.39 7.55,-1.18 15.98,-6.7 1.92,2.87 0.48,2.42 1.49,5.93 6.75,2.09 18.56,-0.41 19.95,-8.36 -4.34,-0.13 -5.57,3.59 -11.53,2.92 -0.83,-7.31 2.08,-12.09 8.51,-14.68 8.62,-3.46 6.8,-6.48 8.73,-14.82 -10.07,-0.01 -3.87,3.11 -11.69,5.14 -6.15,1.6 -7.72,0.41 -11.48,6.4l4.95 4.29c-2.87,3.87 -18.88,20.78 -21.35,9.72 0.15,-3.27 8.79,-5.36 8.58,-13.92 -5.99,-0.29 -10.3,2.04 -13.39,7.33 -1.47,2.53 -1.87,4.55 -3.99,6.56 -3.68,3.49 -4.54,1.54 -7.73,3.33 -0.06,-5.72 3.1,-6.55 6.27,-10.62l-0.38 -4.47c-6.61,-2.53 -12.58,7.83 -17.95,9.32z"/>
  <path class="fil1" d="M354.29 377.89c-0.09,-4.59 -1.62,-5.14 -1.61,-10.69 0.04,-10.91 -3.19,-23.88 -4.62,-34.77 -1.85,-14.16 -3.23,-47.4 -2.51,-63.38 0.15,-3.18 0.58,-2.91 0.8,-5.77l0.9 -18.84c1.17,-11.23 5.59,-52.08 8.89,-56.89l5.9 1.72c-0.46,-3.42 -0.43,-2.66 -2.72,-4.57 -2.29,-1.91 -2.27,-1.95 -5.15,-2.16 -2.31,4.82 2.29,0.06 -5.3,10 -7.49,9.82 -11.23,10.23 -17.47,29.64 -5.34,16.6 -6.78,38.07 -4.27,56.18 5.94,43.02 10.08,49.78 21.72,88.7 1.48,4.95 0.63,7.56 5.44,10.83z"/>
  <path class="fil3" d="M1117.46 324.31c101.78,0 205.12,-0.6 306.87,0.04 4.35,0.03 4.84,0.53 6.82,-3.62 -1.55,-6.71 -7.56,-4.67 -13.99,-4.67l-296.39 0 -3.31 8.25z"/>
  <path class="fil0" d="M961.47 361.45c0.38,-8.24 10.41,-14.07 17.16,-13.78 -1.54,6.11 -10.94,13.22 -17.16,13.78zm-15.11 -36.29l-19.35 25.19c-1.84,2.51 -4.88,6.34 -7.64,6.72 1.47,-2.61 1.53,-8.75 3.21,-11.97 -6.66,-0.63 -7.42,1.35 -9.74,7 -2.82,6.83 -2.79,5.65 -8.29,9.34 0.82,-7.98 6.41,-11.55 5.96,-18.18 -6.62,3.78 -6.37,1.71 -11.83,8.95 -3.37,4.47 -6.28,8.38 -11.8,8.98 2.69,-4.75 1.07,-4.8 6.37,-8.85 3.24,-2.48 6.18,-6.17 4.97,-10.12 -11.43,-3.77 -23.21,19.45 -13.84,24.29 4.94,2.34 9.04,-2.12 12.68,-5.15l2.53 5.73c8.39,0.74 7.52,-1.63 13.69,-4.64 7.07,-3.43 8.74,0.23 13.26,4.09 3.44,-2.35 3.75,-1.92 6.95,-5.33 2.66,-2.82 3.01,-5.27 7.2,-5.52 -0.88,5.4 -2.54,3.11 -2.17,11.4 8.9,0.43 9.33,-3.44 14.97,-4.8 9.48,2 4.22,10.68 18.75,-0.8l2.61 5.6c7.58,0.5 7.49,-0.73 15.07,-5.85 1.63,2.9 -0.28,5.22 4,5.93 8.39,1.39 10.57,-0.64 15.3,-4.68 3.28,-2.79 4.6,-1.66 4.37,-5.89 -5.45,-0.32 -4.08,5.39 -13.2,4.66 -1.18,-15.41 10.39,-12.86 16.3,-19.03 0.33,-2.89 1,-7.82 1,-10.5 -7.78,-0.01 -5.57,2.49 -11.07,4.97 -4.05,1.84 -7.87,1.25 -11.74,4.28l-0.22 4 4 2.53c-3.74,6.94 -11.4,11.78 -18.1,12.19 1.28,-8.05 6.44,-9.08 3.78,-18.85 -25.02,-0.76 -26.02,19.69 -38.78,19.55 1.61,-3.08 1.24,-4.11 3.74,-7.48 2.16,-2.92 4.14,-4.7 2.82,-8.23 -3.27,-1.27 -9.36,1.97 -11.92,4.54 -1.93,1.93 -2.74,2.49 -4.7,4.18 -2.19,1.88 -3.09,3.28 -5.82,3.66 4.14,-6.72 7.13,-10.33 13.29,-15.68 5.59,-4.87 8.7,-10.1 13.09,-16.06l90.95 -0.59 -88.71 0c-4.44,-1.95 -0.88,0.63 -2.6,-3.71l-9.34 4.13z"/>
  <path class="fil0" d="M557.99 358.93l0 0zm-2.63 -34.38l-2.92 0.57c-6.37,4.64 -12.14,3.76 -10.9,15.6 6.98,-3.48 20.49,-7.52 28.2,-8.85 0.31,5.67 -3.42,8.19 -7.72,10.57 -3.78,8.21 -15.71,10.96 -13.24,22.8 10.42,7.11 19.28,-9.05 27.16,-12.73 0.23,5.31 -2.7,6.25 -1.06,13.61l12.43 0.06c8.93,-1.28 11.21,-7.84 15.39,-15.15 5.57,-9.75 9.18,-9.72 9.18,-22.6 -6.44,0.14 -6.1,2.77 -7.45,7.91 -2.33,8.88 -15.42,24.97 -23.32,24.92 0.09,-10.45 17.25,-20.76 16.37,-32.69 -13.12,-0.81 -25.45,26.82 -39.49,30.36 1.54,-5.93 9.5,-10.37 12.68,-14.83 2.11,-2.95 4.24,-4.51 5.66,-8.13 2.46,-6.26 0.97,-5.4 -0.12,-11.24 -8.36,-2.55 -13.71,0.28 -20.85,-0.18z"/>
  <path class="fil0" d="M939.22 253.41l0.14 -5.73 -3.31 -0.05c-1.88,-0.47 -2.43,-0.63 -4.63,0.93 -1.56,1.11 -1.87,1.74 -3.09,3.41 -2.08,2.83 -3.79,5.23 -5.9,8.03l-1.08 6.99c-2.38,0.92 -4.89,2.09 -6.56,1.04 -1.6,-2.6 -0.17,-7.27 0.89,-10.55l3.73 -1.16c8.34,-13.68 11.89,-14.47 11.89,-25.99 -13.57,0 -21.6,10.37 -25.68,22.75 -3.74,11.34 -6.01,29.33 2.88,38.88 7.24,3.3 24.74,-32.9 30.72,-38.55z"/>
  <path class="fil0" d="M1076.06 356.75c-0.62,-2.65 0.22,-2.12 1.2,-5.09 0.96,-2.89 0.74,-4.18 0.57,-7.38 -11.18,-0.19 -7.22,14.87 -17.16,17.03 -0.49,-6.03 7.32,-13.75 6.44,-17.51 -4.24,-1.08 -9.18,4.49 -11.95,7.94 -5.65,7.03 -4.28,5.57 -11.88,9.62 -0.43,-10.15 11.56,-7.71 10.73,-18.77 -9.47,-0.78 -16.78,7.67 -16.58,16.35 0.08,3.5 1.41,6.06 3.24,8.24 8.04,0.01 7.33,-2.15 13.31,-5.78l1.9 5.66c14.01,0.29 5.14,-1.83 13.8,-4.34 3.19,-0.92 6.23,-1.5 9.64,-1.12 3.04,4.43 0.48,7.19 13.48,5.38 5.83,-0.8 11,-3.12 11.87,-9.7 -2.64,2.17 -14.13,9.97 -16.51,1.54 2.84,-3.48 7.14,-3.11 10.58,-5.45 2.5,-1.7 14.89,-14.51 -1.88,-11 -5.85,1.23 -11.12,4.21 -14.52,9.61 -1.88,3 -2.11,5.83 -6.28,4.77z"/>
  <path class="fil2" d="M275.03 272.96c6.39,-2.26 7.88,-4.01 15.67,-2.87 5.34,0.78 11.64,3.1 16.83,3.1 -4.36,-19.01 -4.71,-4.89 -2.37,-24.72 1.01,-8.63 2.2,-1.33 2.37,-8.25 -14.24,3.59 -12.16,8.24 -28.54,1.83l-8.75 -2.03c-0.53,5.54 -0.84,28.36 0.2,33.33l4.59 -0.39z"/>
  <path class="fil1" d="M269.48 230.33c5.55,-0.13 11.84,-3.92 18.24,-4.18 5.89,-0.23 13.13,2.81 19.01,3.35 0,-6.19 -3.36,-10.73 -3.23,-16.47 0.07,-2.64 2.91,-13.17 3.96,-15.47 -13.76,-0.38 -8.49,10.81 -36.98,-1.72 -1.16,11.36 -1,22.79 -1,34.49z"/>
  <path class="fil0" d="M980.43 217.14c0.01,4.51 -1.39,6.15 0,9.67 22.18,3.88 16.91,0.18 29.06,1.25l-0.52 1.44c6.7,-1.07 6.73,-4.13 9.51,-9.89 3.53,-7.32 4.05,-6.32 -0.86,-13.12 0.76,-6.52 4.69,-10.6 4.82,-17.38 -16.82,0 -10.68,8.01 -20.11,15.35 -5.46,4.25 -22.9,2.6 -21.9,12.68z"/>
  <path class="fil2" d="M227.47 216.55c0.93,2.14 -2.23,10.71 -2.4,13.95 6.52,0.03 12.12,-3.13 19.06,-2.64 6.56,0.47 10.82,3.56 18.22,3.58 -0.4,-5.32 -2.05,-10.15 -1.57,-15.93 0.26,-3.24 0.8,-4.33 0.79,-8.25 0,-3.03 -0.01,-6.05 -0.01,-9.09 -2.51,0.01 -7.25,0.79 -9.41,1.76 -4.13,1.84 -3.16,3.21 -8.81,3.26 -6.86,0.07 -12.79,-3.23 -18.97,-3.98l3.1 17.34z"/>
  <path class="fil1" d="M227.86 250.11c4.36,8.59 -0.83,14.8 -2.76,23.08 8.13,-0.75 16.69,-6.07 24.57,-2.51l13.14 2.53 -0.22 -33.25c-6.56,0.48 -12.34,4.44 -17.81,4.83 -6.28,0.46 -12.01,-2.84 -18.41,-2.92l1.49 8.24z"/>
  <path class="fil0" d="M630.8 358.21c-5.75,1.12 -8.49,6.29 -15.99,3.44 -3.13,-8.96 23.67,-8.25 15.11,-19.83 -11.3,-1.26 -23.04,6.69 -23.63,17.15 -0.54,9.43 5.42,8.56 12.76,8.25 5.05,-0.22 10.82,-3.86 11.75,-9.01z"/>
  <path class="fil0" d="M1271.45 212.87c5.9,1.12 9.04,2.59 13.05,-3.46 2.47,-3.73 3.37,-12.9 0.43,-16.33 -4.35,-5.07 -12.12,2.13 -13.65,11.69 -0.83,5.18 -0.3,3.26 0.17,8.1z"/>
  <path class="fil3" d="M772.91 334.34c-0.26,3.56 -0.27,2.43 0.8,5.49 3.55,0.29 2.95,0.35 6.07,-0.83 1.06,-3.05 1.05,-1.92 0.79,-5.48 -3.7,-0.71 -3.65,-0.69 -7.66,0.82z"/>
  <path class="fil3" d="M1293.65 339.83c4.66,0.38 9.15,-0.87 7.27,-6.74 -1.72,-0.56 -3.66,-0.21 -5.32,0.8 -2.46,1.48 -2.16,3.12 -1.95,5.94z"/>
  <path class="fil4" d="M1109.83 339.9c4.27,-2.1 8.03,-1.96 12.62,-5.7 -3,-1.75 -11.96,0.93 -12.62,5.7z"/>
  <path class="fil5" d="M1001.7 308.64l4.01 -0.02c-1.5,3.72 -0.73,1.85 0.68,2.28 1.59,-2.27 1.04,-0.49 0.86,-3.76 -2.3,-0.19 -4.5,-0.7 -5.55,1.5z"/>
  <path class="fil5" d="M1323.63 405.1l0.24 -0.25c-0.02,0.02 -0.32,0.17 -0.24,0.25z"/>
 </g>
</svg>
